<svg width="1587" height="626" viewBox="0 0 1587 626" fill="none" xmlns="http://www.w3.org/2000/svg">
<path d="M87.4004 441.9C88.5004 447.9 94.9004 454.9 97.9004 459.4C108.2 474.3 122.9 489.9 137.3 500.6C207.9 553.5 293.9 541.1 370.6 508.9C376.5 506.4 382.8 502.5 388.7 500.5C387.3 500.8 388.8 500.2 388.2 502L387.2 503.3C387.1 503.4 386.9 503.6 386.8 503.7L373.2 514C334.7 541.1 288.5 565.7 240.2 574C188.6 582.9 123.2 581.7 78.2004 551.9C75.3004 550 72.4004 548.3 69.9004 546.4C66.9004 544.2 64.7004 542.1 61.4004 540.6C64.9004 548.5 68.9004 553.7 74.7004 559.5L88.2004 570.9C90.3004 572.2 92.2004 572.8 92.0004 574C94.4004 575.8 98.1004 576.3 100.9 577.7C127.3 590.7 138.3 594.9 170.5 599.8C240.9 610.5 320.7 590.5 380.7 555C385.5 552.1 411 535.7 413.6 535.5C416.9 533.9 436.5 516.2 439.5 513.5C448.2 505.7 455.8 497.6 463.4 489.5C475.6 476.5 485.6 464.8 496.5 450.6C498.7 447.8 504.9 438 506.9 436.4C505.2 433.4 513 421.8 514.5 418.9C529.9 388.2 541.6 354.8 545.9 320.1C546.9 311.9 547.2 304.1 548.2 295.7C549.1 287.9 548.3 278.8 548.7 270.6C547.3 274.1 547.9 280.1 547.2 284.2C546.4 288.5 545.5 293.2 544.5 297.8C535.3 338.3 513.3 372.7 487.2 403.5C482 409.6 460.9 432.7 454.6 436.2C458.5 428.1 474.8 410.5 476.7 402.5C474.2 403.5 460.8 415.7 457.6 418.6C451.2 424.2 444.6 428.8 437.7 433.8C395.4 464.8 347.2 486.7 293.6 500.7C257.7 510.1 203.4 513.2 167.1 503.1C134.9 494.2 110.2 473 91.9004 447.1L88.7004 443.2C88.1004 442.4 88.4004 442.6 87.4004 441.9Z" fill="#857BB7"/>
<path d="M185.5 236.5C183.4 238.7 183 240.1 182 243C175.6 260.6 171.1 272.8 168.8 293.1C166.2 316.1 167.5 339.1 172.1 360.3C186.8 427.3 226.5 443.1 229.2 449.1C245.5 456.8 272.8 461.8 294.4 461.6C346.1 461.2 394.7 436.6 430.2 402.9C433.1 400.1 447.5 385.3 448.8 382.2C449.1 379.8 456 369.5 458 366.3C461.1 361.5 463.6 356 466.3 350.6C478.1 326.3 484.7 299.2 484.7 271.4C484.7 260.6 483.5 249 480.6 238.7C480.2 237.2 479.8 235.7 479.3 234C478.7 232 479.1 232.9 478.4 231.5C477.8 230.3 477.6 230.2 477.1 229.6C480.6 259.3 479.4 275.6 467.7 299.6C456.6 322.2 444.3 337.6 428.7 354C401.3 383 372.2 404.6 329.2 410.6C257.3 420.6 193.8 377.4 182.3 311.4C179.2 293.4 178.4 272.8 181.8 254.7C182.9 248.3 184.7 242.7 185.5 236.5Z" fill="#857BB7"/>
<path d="M1387.5 472.099V339.199C1387.5 330.999 1385.6 300.199 1388.4 295.199C1391.1 296.399 1391.7 298.199 1393.5 300.599L1497 435.499C1507.7 449.299 1520.8 469.999 1543.6 472.199C1570.7 474.799 1584.6 456.199 1585.7 430.999C1586.1 420.999 1586.9 276.499 1585.1 265.099C1581.2 239.799 1558.7 226.799 1537.6 229.499C1536.2 233.699 1537.2 359.399 1537.2 384.699C1537.2 388.399 1537.2 392.099 1537.2 395.799C1537.2 403.799 1537.8 403.899 1535.9 406.499C1532.8 404.499 1528.9 398.099 1526.5 394.899C1494 352.599 1459.6 306.199 1427.2 265.299C1416.1 251.299 1404 230.799 1379.9 229.399C1353.4 227.799 1339.7 246.199 1339 271.499C1338.7 283.499 1338 424.699 1339.8 436.799C1343.6 462.099 1366.3 475.199 1387.5 472.099ZM1115.8 371.999C1112 376.599 1110.2 412.399 1076.6 424.199C1049.9 433.599 1021.5 421.999 1008.8 406.699C994.2 389.099 986.8 363.499 992.8 333.599C1004.3 275.899 1067.6 261.199 1108.1 284.999C1159 314.899 1144.9 383.499 1148 429.699C1149 444.699 1153.1 453.799 1162 461.699C1168.9 467.799 1184.6 473.899 1198 471.999C1198 445.299 1199.2 362.399 1196.8 341.999C1192.7 306.999 1178.6 276.599 1152.1 254.799C1113.4 222.999 1046.9 215.999 999.2 243.999C986.8 251.299 972.2 263.199 964 274.799C942.2 305.999 933.7 339.199 940.2 379.199C958.5 492.799 1108.6 498.899 1126.7 422.999C1130.8 406.399 1125.3 382.099 1115.8 371.999ZM853.8 276.599C851.9 280.999 804 318.199 799.3 321.899C780.6 336.599 762.3 351.499 743.7 366.699C728.2 379.399 700.8 398.499 691.9 415.199C684.9 428.299 686.9 443.799 695 453.899C710.8 473.599 753.2 468.499 780.5 468.499H905.7C919.2 468.499 920.7 471.699 918.4 457.599C913.1 424.399 885.5 424.499 850.8 424.499C838 424.499 756.3 425.899 751.8 423.499C752 419.899 766.8 409.499 770.1 406.799L870.7 325.599C883.7 315.199 899.4 303.499 908.9 290.899C921.9 273.799 919 250.699 903.4 240.099C887.4 229.199 862.2 231.299 839.6 231.299C828.6 231.299 701.7 230.599 694.4 231.499C691.9 241.799 696.8 259.099 708.3 267.199C719.6 275.199 735 275.199 751.4 275.199L850.9 275.299C856.7 276.399 846.6 273.799 852.4 275.799L853.8 276.599ZM229.2 449.199C226.5 443.199 186.9 427.399 172.1 360.399C167.4 339.199 166.2 316.199 168.8 293.199C171.1 272.999 175.6 260.699 182 243.099C183.1 240.099 183.4 238.799 185.5 236.599C186.5 235.299 187.2 233.699 187.7 232.199C187.4 241.799 185.7 252.499 187.4 261.999C189 257.899 190.3 250.899 191.8 246.099C196.3 230.799 203.1 216.999 211.4 203.999C282 92.5994 477.1 80.4994 535.2 201.399C545.6 222.999 549.8 242.699 548.9 270.799C548.5 278.999 549.3 288.099 548.4 295.899C547.4 304.299 547.1 311.999 546.1 320.299C541.8 354.999 530.2 388.399 514.7 419.099C513.2 421.999 505.4 433.599 507.1 436.599L523.3 411.399C538.7 387.299 552.8 354.199 562 326.599C609.9 182.699 503.3 57.1995 340.1 84.9995C260.3 98.5995 184.7 151.799 152.9 227.799C134.8 271.099 129.7 319.499 147.5 365.299C161.5 401.399 192.8 437.099 229.2 449.199Z" fill="#6DC8B7"/>
<path d="M477 229.699C477.4 230.299 477.6 230.399 478.3 231.599C479 232.999 478.7 232.099 479.2 234.099C479.7 235.699 480 237.199 480.5 238.799C483.4 249.099 484.6 260.599 484.6 271.499C484.7 299.299 478 326.399 466.2 350.699C463.6 356.099 461 361.699 457.9 366.399C455.9 369.499 449 379.799 448.7 382.299C459.3 375.899 483 331.199 488.9 315.199C499.2 287.499 505.9 255.699 496.4 223.799C481.7 174.599 427.5 138.799 361.2 144.399C241.4 154.499 198.8 272.599 239.5 315.999C257.5 335.199 288.1 337.899 311.6 328.099C313.2 327.399 314.7 326.699 316.3 325.899C317.7 325.199 317.3 325.499 318.5 324.599C320.2 323.299 319.3 324.099 320.2 322.799C317.5 321.099 313.9 320.199 310.6 318.599C252.8 290.799 273.4 216.199 323.7 188.299C349.8 173.799 383 166.499 417.8 175.399C438.5 180.699 457.5 192.599 468.2 209.899C472.3 216.599 473.6 222.799 477 229.699ZM388.2 501.899C388.7 500.099 387.3 500.599 388.7 500.399C382.8 502.499 376.5 506.399 370.6 508.799C293.9 540.999 208 553.399 137.3 500.499C123 489.799 108.2 474.199 97.8998 459.299C94.8998 454.899 88.3998 447.799 87.3998 441.799C86.6998 439.099 79.1998 427.199 76.9998 422.799C73.2998 415.699 70.7998 409.899 67.5998 402.199C54.8998 372.099 49.7998 332.999 48.6998 299.699C47.9998 279.499 49.9998 260.899 49.7998 241.199C40.9998 256.899 34.4998 295.399 32.3998 317.499C29.6998 347.599 31.3998 375.999 37.2998 404.099C42.5998 429.199 52.0998 452.899 63.1998 472.499C104.4 545.199 171.6 570.099 254.2 556.099C307.3 547.099 349.1 524.199 388.2 501.899ZM1240.4 243.999C1240.5 289.699 1240.4 335.499 1240.4 381.199C1240.4 399.299 1238.3 431.199 1243.7 446.199C1250.6 465.799 1270.6 473.699 1290.6 472.199C1290.6 423.199 1290.6 374.399 1290.6 325.499C1290.6 307.699 1292.6 268.899 1287.6 254.899C1280 233.699 1253.8 224.999 1240.4 228.699V243.999Z" fill="#6DC8B7"/>
<path d="M413.8 535.7C411.1 535.9 385.7 552.3 380.9 555.2C321 590.7 241.2 610.7 170.7 600C138.5 595.1 127.5 590.9 101.1 577.9C98.3002 576.5 94.5002 576 92.2002 574.2C51.3002 562.1 26.1002 508.7 13.5002 470.1C6.1002 447.3 6.4002 440.6 1.5002 422.6C-2.4998 443.5 5.1002 483.2 10.2002 501.6C16.8002 525.3 27.5002 543.9 39.6002 560.6C61.9002 591.4 101.1 614.8 153.4 622.5C206.5 630.3 262.9 622 305.8 603.7C327 594.7 345.6 584.3 363.3 572.9C373.4 566.2 409.9 541.7 413.8 535.7ZM117.6 113.6C118.8 113.2 157 90.5997 168.9 85.0997C212.6 64.7997 235.8 54.4997 282.6 38.3997C298 33.0997 314.1 31.2997 321.8 17.5997C323.9 13.8997 326.9 5.19967 322.8 1.19967C317.2 -4.30033 267.3 12.0997 259.9 14.9997C240.1 22.6997 222.5 31.4997 205.7 41.3997C180.3 56.3997 157.9 73.2997 137 92.7997C132.7 96.7997 119.4 109.4 117.6 113.6ZM1258.8 151.9C1220.3 161.8 1234.8 218.3 1272.3 209.3C1285.9 206 1298.3 192.4 1294.3 174.3C1291.3 160.4 1276.7 147.3 1258.8 151.9Z" fill="#6DC8B7"/>
</svg>
